<?xml version="1.0" encoding="utf-8"?>
<!-- Generator: Adobe Illustrator 16.0.0, SVG Export Plug-In . SVG Version: 6.00 Build 0)  -->
<!DOCTYPE svg PUBLIC "-//W3C//DTD SVG 1.1//EN" "http://www.w3.org/Graphics/SVG/1.1/DTD/svg11.dtd">
<svg version="1.1" id="Layer_1" xmlns="http://www.w3.org/2000/svg" xmlns:xlink="http://www.w3.org/1999/xlink" x="0px" y="0px"
	 width="217.5px" height="49.75px" viewBox="0 0 217.5 49.75" enable-background="new 0 0 217.5 49.75" xml:space="preserve">
<g>
	<path fill="#1E8181" d="M22.418,23.08c1.251,0.266,2.495,0.564,3.732,0.897c1.237,0.333,2.338,0.792,3.302,1.376
		c0.964,0.585,1.745,1.351,2.345,2.294c0.599,0.945,0.899,2.175,0.899,3.691c0,2.607-0.932,4.635-2.794,6.084
		c-1.864,1.451-4.462,2.176-7.797,2.176c-3.335,0-5.927-0.725-7.777-2.176c-1.85-1.449-2.774-3.477-2.774-6.084h2.735
		c0,1.196,0.267,2.154,0.801,2.873c0.534,0.717,1.198,1.275,1.994,1.675c0.794,0.399,1.647,0.659,2.559,0.778
		c0.912,0.119,1.732,0.18,2.462,0.18s1.55-0.061,2.462-0.18s1.765-0.379,2.56-0.778c0.794-0.399,1.465-0.958,2.012-1.675
		c0.548-0.719,0.821-1.677,0.821-2.873c0-0.824-0.131-1.517-0.391-2.075s-0.703-1.037-1.329-1.437
		c-0.625-0.398-1.459-0.758-2.501-1.078c-1.042-0.318-2.345-0.638-3.908-0.957c-1.251-0.266-2.495-0.564-3.732-0.898
		c-1.238-0.332-2.339-0.791-3.303-1.376c-0.963-0.584-1.745-1.356-2.344-2.314c-0.6-0.958-0.899-2.194-0.899-3.71
		c0-2.607,0.924-4.642,2.774-6.105c1.85-1.462,4.442-2.194,7.777-2.194c3.335,0,5.934,0.732,7.797,2.194
		c1.862,1.464,2.794,3.498,2.794,6.105H29.96c0-1.197-0.273-2.155-0.821-2.873c-0.547-0.718-1.218-1.277-2.012-1.676
		c-0.795-0.399-1.648-0.658-2.56-0.778s-1.733-0.18-2.462-0.18s-1.55,0.06-2.462,0.18c-0.912,0.12-1.765,0.379-2.559,0.778
		c-0.796,0.399-1.46,0.958-1.994,1.676c-0.534,0.718-0.801,1.676-0.801,2.873c0,0.825,0.137,1.516,0.411,2.074
		c0.273,0.559,0.729,1.045,1.368,1.457c0.639,0.413,1.472,0.778,2.501,1.098C19.597,22.441,20.88,22.761,22.418,23.08z"/>
	<path fill="#1E8181" d="M60.208,18.417c2.631,0,4.683,0.944,6.155,2.833c1.472,1.889,2.208,4.513,2.208,7.875v10.475h-2.697V29.125
		c0-0.729-0.065-1.557-0.195-2.481c-0.13-0.925-0.397-1.798-0.801-2.619c-0.405-0.82-0.978-1.504-1.72-2.051
		c-0.743-0.547-1.727-0.821-2.951-0.821c-1.225,0-2.208,0.273-2.951,0.821c-0.742,0.547-1.315,1.231-1.719,2.051
		c-0.404,0.821-0.671,1.694-0.801,2.619s-0.195,1.753-0.195,2.481v10.475h-2.736V29.125c0-0.729-0.065-1.557-0.195-2.481
		c-0.131-0.925-0.391-1.798-0.782-2.619c-0.391-0.82-0.957-1.504-1.7-2.051c-0.742-0.547-1.726-0.821-2.95-0.821
		c-1.225,0-2.208,0.273-2.951,0.821c-0.742,0.547-1.315,1.231-1.72,2.051c-0.404,0.821-0.671,1.694-0.801,2.619
		s-0.195,1.753-0.195,2.481v10.475h-2.735V29.125c0-3.361,0.735-5.985,2.208-7.875c1.472-1.889,3.538-2.833,6.195-2.833
		c1.615,0,3.009,0.358,4.182,1.074c1.172,0.717,2.11,1.753,2.813,3.107c0.703-1.354,1.648-2.39,2.833-3.107
		C57.193,18.775,58.593,18.417,60.208,18.417z"/>
	<path fill="#1E8181" d="M84.321,18.299c3.387,0,6.019,0.945,7.894,2.833c1.876,1.889,2.814,4.514,2.814,7.875v4.689
		c0,0.443-0.104,1.011-0.312,1.7c-0.208,0.69-0.684,1.354-1.427,1.993c-0.742,0.639-1.817,1.186-3.224,1.642
		c-1.407,0.456-3.322,0.684-5.745,0.684c-2.423,0-4.338-0.228-5.745-0.684c-1.407-0.456-2.482-1.003-3.225-1.642
		c-0.742-0.639-1.218-1.303-1.426-1.993c-0.209-0.689-0.313-1.257-0.313-1.7c0-1.589,0.247-2.84,0.742-3.752
		c0.495-0.911,1.159-1.596,1.993-2.051s1.818-0.749,2.951-0.88c1.134-0.13,2.351-0.195,3.654-0.195h9.145
		c-0.365-1.876-1.199-3.309-2.501-4.299c-1.303-0.99-3.062-1.485-5.276-1.485c-2.241,0-4.051,0.535-5.433,1.602l-1.68-2.149
		C79.058,19.029,81.429,18.299,84.321,18.299z M92.293,29.554h-7.972c-1.745,0-3.146,0.047-4.201,0.137
		c-1.056,0.092-1.864,0.28-2.423,0.566c-0.562,0.287-0.925,0.704-1.095,1.251c-0.17,0.548-0.254,1.276-0.254,2.188
		c0,0.6,0.235,1.108,0.704,1.524c0.469,0.417,1.081,0.756,1.836,1.017c0.756,0.26,1.609,0.449,2.56,0.566
		c0.951,0.117,1.909,0.176,2.873,0.176s1.921-0.059,2.873-0.176c0.951-0.117,1.804-0.307,2.56-0.566
		c0.755-0.261,1.368-0.6,1.836-1.017c0.469-0.416,0.704-0.925,0.704-1.524V29.554z"/>
	<path fill="#1E8181" d="M102.688,21.25c1.745-1.889,4.181-2.833,7.308-2.833v2.735c-2.345,0-4.129,0.684-5.354,2.052
		s-1.836,3.342-1.836,5.92v10.475h-2.735V29.125C100.07,25.763,100.942,23.139,102.688,21.25z"/>
	<path fill="#1E8181" d="M129.185,21.387h-5.746v18.212h-2.734V21.387h-5.707v-2.736h5.707V9.155h2.734v9.496h5.746V21.387z"/>
	<path fill="#56A292" stroke="#56A292" stroke-width="2" stroke-miterlimit="10" d="M155.798,9.741v29.271h-2.736V24.318h-15.71
		v14.694h-2.735V9.741h2.735v11.841h15.71V9.741H155.798z"/>
	<path fill="#56A292" stroke="#56A292" stroke-width="2" stroke-miterlimit="10" d="M170.961,39.012
		c-2.763,0-4.911-0.938-6.448-2.813c-1.537-1.876-2.306-4.508-2.306-7.895V18.026h2.735v10.278c0,0.756,0.064,1.59,0.195,2.501
		c0.13,0.912,0.41,1.778,0.84,2.599s1.042,1.505,1.837,2.052c0.794,0.547,1.843,0.821,3.146,0.821c1.302,0,2.351-0.274,3.146-0.821
		s1.407-1.231,1.837-2.052c0.431-0.82,0.71-1.687,0.841-2.599c0.13-0.911,0.195-1.745,0.195-2.501V18.026h2.735v10.278
		c0,3.387-0.769,6.019-2.306,7.895C175.872,38.074,173.722,39.012,170.961,39.012z"/>
	<path fill="#56A292" stroke="#56A292" stroke-width="2" stroke-miterlimit="10" d="M196.73,17.635c3.36,0,5.979,0.938,7.854,2.813
		c1.876,1.876,2.813,4.508,2.813,7.895c0,3.361-0.938,5.979-2.813,7.855c-1.876,1.875-4.494,2.813-7.854,2.813
		c-3.388,0-6.02-0.938-7.895-2.813c-1.876-1.876-2.814-4.494-2.814-7.855V9.78h2.736v10.786c0.912-0.938,2.038-1.661,3.38-2.168
		C193.479,17.889,195.009,17.635,196.73,17.635z M196.73,36.316c2.579,0,4.553-0.684,5.92-2.052
		c1.368-1.368,2.053-3.341,2.053-5.921c0-2.605-0.685-4.585-2.053-5.94c-1.367-1.354-3.341-2.033-5.92-2.033
		c-2.606,0-4.586,0.678-5.941,2.033c-1.354,1.355-2.031,3.335-2.031,5.94c0,2.58,0.677,4.553,2.031,5.921
		C192.144,35.632,194.124,36.316,196.73,36.316z"/>
</g>
</svg>
