<svg xmlns="http://www.w3.org/2000/svg" width="217.5" height="49.75" viewBox="0 0 217.5 49.75"><path fill="#1E8181" d="M22.418 23.08c1.25.266 2.495.564 3.732.897 1.237.333 2.338.792 3.302 1.376.964.585 1.745 1.35 2.345 2.294.6.945.9 2.175.9 3.69 0 2.608-.933 4.636-2.795 6.085-1.864 1.45-4.462 2.176-7.797 2.176s-5.927-.725-7.777-2.176c-1.85-1.45-2.774-3.477-2.774-6.084h2.735c0 1.196.266 2.154.8 2.873.534.718 1.198 1.276 1.994 1.676.794.4 1.647.66 2.56.778.91.12 1.73.18 2.46.18s1.55-.06 2.463-.18 1.765-.38 2.56-.778c.794-.4 1.465-.958 2.012-1.675.547-.718.82-1.676.82-2.872 0-.824-.13-1.517-.39-2.075s-.704-1.037-1.33-1.437c-.625-.398-1.46-.758-2.5-1.078-1.043-.318-2.346-.638-3.91-.957-1.25-.265-2.494-.563-3.73-.897-1.24-.332-2.34-.79-3.304-1.376-.963-.584-1.745-1.356-2.344-2.314-.6-.958-.9-2.194-.9-3.71 0-2.607.925-4.642 2.775-6.105 1.85-1.462 4.442-2.194 7.777-2.194s5.934.732 7.797 2.194c1.863 1.464 2.795 3.498 2.795 6.105H29.96c0-1.197-.273-2.155-.82-2.873-.548-.718-1.22-1.277-2.013-1.676-.795-.4-1.648-.658-2.56-.778s-1.733-.18-2.462-.18-1.55.06-2.462.18c-.912.12-1.765.38-2.56.778-.795.4-1.46.958-1.993 1.676-.534.718-.8 1.676-.8 2.873 0 .825.136 1.516.41 2.074.273.56.73 1.045 1.368 1.457.64.413 1.472.778 2.5 1.098 1.03.32 2.312.64 3.85.958zM60.208 18.417c2.63 0 4.683.944 6.155 2.833 1.472 1.89 2.208 4.513 2.208 7.875V39.6h-2.696V29.125c0-.73-.065-1.557-.195-2.48-.13-.926-.398-1.8-.802-2.62-.405-.82-.978-1.504-1.72-2.05-.743-.548-1.727-.822-2.95-.822-1.226 0-2.21.273-2.952.82-.742.548-1.315 1.232-1.72 2.052-.403.82-.67 1.694-.8 2.62s-.195 1.752-.195 2.48V39.6h-2.735V29.125c0-.73-.065-1.557-.195-2.48-.13-.926-.39-1.8-.782-2.62-.39-.82-.957-1.504-1.7-2.05-.742-.548-1.726-.822-2.95-.822-1.225 0-2.208.273-2.95.82-.743.548-1.316 1.232-1.72 2.052-.405.82-.672 1.694-.802 2.62s-.195 1.752-.195 2.48V39.6h-2.734V29.125c0-3.36.735-5.985 2.208-7.875 1.472-1.89 3.538-2.833 6.195-2.833 1.614 0 3.008.358 4.18 1.074 1.173.718 2.11 1.754 2.814 3.108.703-1.354 1.648-2.39 2.833-3.107 1.186-.715 2.586-1.073 4.2-1.073zM84.32 18.3c3.388 0 6.02.944 7.895 2.832 1.876 1.89 2.814 4.514 2.814 7.875v4.69c0 .442-.105 1.01-.313 1.7-.208.69-.684 1.353-1.427 1.992-.742.638-1.817 1.185-3.224 1.64-1.407.457-3.322.685-5.745.685-2.422 0-4.337-.228-5.744-.684-1.407-.455-2.482-1.002-3.225-1.64-.74-.64-1.217-1.304-1.425-1.994-.21-.69-.313-1.257-.313-1.7 0-1.59.247-2.84.742-3.752.495-.91 1.16-1.596 1.993-2.05s1.818-.75 2.95-.88c1.135-.13 2.352-.196 3.655-.196h9.145c-.365-1.876-1.2-3.31-2.5-4.3-1.304-.99-3.063-1.484-5.277-1.484-2.24 0-4.05.535-5.433 1.602l-1.68-2.15c1.85-1.457 4.222-2.187 7.114-2.187zm7.973 11.254H84.32c-1.744 0-3.145.047-4.2.137-1.056.093-1.864.28-2.423.567-.562.287-.925.704-1.095 1.25-.17.55-.254 1.277-.254 2.19 0 .6.235 1.107.704 1.523.47.417 1.08.756 1.836 1.017.756.26 1.61.45 2.56.566.95.117 1.91.176 2.873.176s1.922-.06 2.874-.177c.95-.117 1.804-.307 2.56-.566.755-.26 1.368-.6 1.836-1.017.47-.416.704-.925.704-1.524v-4.142zM102.688 21.25c1.745-1.89 4.18-2.833 7.308-2.833v2.735c-2.345 0-4.13.684-5.354 2.052s-1.836 3.342-1.836 5.92V39.6h-2.735V29.124c0-3.362.872-5.986 2.618-7.875zM129.185 21.387h-5.746V39.6h-2.735V21.386h-5.707V18.65h5.707V9.156h2.734v9.496h5.745v2.737z"/><path fill="#56A292" stroke="#56A292" stroke-width="2" stroke-miterlimit="10" d="M155.798 9.74v29.272h-2.736V24.318h-15.71v14.694h-2.735V9.742h2.735v11.84h15.71V9.742h2.736zM170.96 39.012c-2.762 0-4.91-.938-6.447-2.813-1.537-1.877-2.306-4.51-2.306-7.896V18.026h2.735v10.278c0 .756.064 1.59.195 2.5.13.913.41 1.78.84 2.6s1.042 1.505 1.837 2.052c.794.547 1.843.82 3.146.82 1.302 0 2.35-.273 3.146-.82s1.407-1.23 1.837-2.052c.43-.82.71-1.687.84-2.6.13-.91.196-1.744.196-2.5V18.026h2.734v10.278c0 3.387-.77 6.02-2.306 7.895-1.536 1.874-3.686 2.812-6.447 2.812zM196.73 17.635c3.36 0 5.98.938 7.854 2.813 1.876 1.876 2.813 4.508 2.813 7.895 0 3.36-.938 5.98-2.813 7.855-1.876 1.875-4.494 2.813-7.854 2.813-3.388 0-6.02-.937-7.895-2.812-1.876-1.876-2.814-4.494-2.814-7.855V9.78h2.737v10.786c.912-.938 2.038-1.66 3.38-2.168 1.342-.51 2.872-.763 4.593-.763zm0 18.68c2.58 0 4.553-.683 5.92-2.05 1.368-1.37 2.053-3.342 2.053-5.922 0-2.605-.685-4.585-2.053-5.94-1.367-1.354-3.34-2.033-5.92-2.033-2.606 0-4.586.678-5.94 2.033-1.355 1.355-2.032 3.335-2.032 5.94 0 2.58.677 4.553 2.03 5.92 1.356 1.37 3.336 2.053 5.942 2.053z"/></svg>